<svg width="215" height="56" viewBox="0 0 215 56" fill="none" xmlns="http://www.w3.org/2000/svg">
<path d="M33.9407 11.7725V11.7734L34.72 11.9863L34.7219 11.9873L34.9573 12.0479V12.0488L36.804 12.5479V30.9932H36.5686L36.7854 31.3037L36.804 31.3291V39.0352C36.4928 39.3732 36.1695 39.7057 35.8342 40.0264L35.8323 40.0273C35.66 40.1958 35.4831 40.3607 35.302 40.5264C35.0845 40.7245 34.8702 40.9203 34.6487 41.1074L34.6467 41.1084C34.4757 41.2564 34.3027 41.4016 34.1272 41.5449L33.593 41.9707L33.5901 41.9727C33.4693 42.0708 33.3481 42.162 33.219 42.2598H33.218C32.9577 42.4589 32.6887 42.6515 32.4182 42.8408L32.4163 42.8428C32.2611 42.9548 32.1025 43.0614 31.9417 43.1689L31.3235 42.3027L30.719 41.4531L30.718 41.4521L30.6243 41.3242H30.6252L30.4426 41.0723L29.7229 40.0615L29.3772 39.5771V39.5762L29.2454 39.3936H29.2444L28.2356 37.9756V31.3838H27.842V37.5459L26.6672 36.1162V36.1152L26.6301 36.0703L26.6331 36.0684L26.5208 35.9307L26.4856 35.8877L25.9954 35.2881V19.4668L26.1819 19.5244L26.1838 19.5254L26.4309 19.5977V19.5986L27.9817 20.0713L28.3879 20.1953L29.9153 20.6602L29.9172 20.6611L30.0403 20.6973L30.0862 20.7539V33.5146L30.1233 33.5654L30.3049 33.8154V33.8164L31.5969 35.6328L31.4124 35.8799H31.7747L32.3167 36.6387L32.3655 36.709L32.7249 37.2354V29.1504H32.967L32.7512 28.8408L32.7249 28.8027V11.5342L32.7776 11.46L33.9407 11.7725ZM32.3811 42.2773L32.0442 42.6133H32.7209V41.9375L32.3811 42.2773Z" fill="white" stroke="white" stroke-width="0.393987"/>
<path d="M21.4526 9.0127V9.01172L23.3491 9.52344V11.3994L23.0366 11.3213L23.3491 11.75V13.124L23.3413 13.1348L23.105 13.4492H23.3491V15.2998H23.1245L23.3472 15.6113L23.3491 15.6133V32.4473C23.3474 32.4518 23.3459 32.4564 23.3442 32.4609C23.3384 32.4764 23.3325 32.4923 23.3267 32.5078L23.3618 32.5264H23.3491V44.0664L23.2866 44.1562L23.3491 44.2275V46.4492C23.128 46.5351 22.9048 46.6179 22.6792 46.7002C22.3867 46.6206 22.0983 46.5422 21.811 46.4561L21.8081 46.4551L21.3628 46.3203L20.7222 46.1133L20.7192 46.1123L20.1558 45.9219C19.9692 45.8565 19.7837 45.789 19.5991 45.7197C19.4422 45.6609 19.2866 45.6039 19.1343 45.543L19.1313 45.542C18.5729 45.3263 18.0226 45.0949 17.4839 44.8486H17.4829C17.2868 44.7602 17.095 44.6718 16.9038 44.5801H16.9048C16.9009 44.5782 16.8969 44.5761 16.8931 44.5742C16.8893 44.5723 16.8851 44.5712 16.8813 44.5693V44.5684L16.8706 44.5645L16.7183 44.4912L16.7153 44.4902L16.0806 44.1758C15.8707 44.0685 15.6627 43.9584 15.4565 43.8467H15.4556C15.2236 43.7223 14.9951 43.5941 14.769 43.4639V38.5869C14.8935 38.6931 15.0199 38.7984 15.1489 38.9004V38.9014C15.3358 39.0532 15.5287 39.2065 15.7261 39.3525L15.7271 39.3535C15.7476 39.3685 15.7701 39.3838 15.7925 39.4004L15.8589 39.4502C16.1331 39.6538 16.4149 39.8489 16.7036 40.04V40.041C16.8623 40.1455 17.0199 40.2464 17.1812 40.3447V40.3457C17.3694 40.4634 17.561 40.5773 17.7505 40.6895L17.7524 40.6904C18.1508 40.9209 18.5544 41.1398 18.9702 41.3438L19.2534 41.4834V38.8877L19.3267 38.7705L19.2534 38.6973V15.6865L19.3081 15.6094L19.5229 15.2998H19.2534V13.4492H19.5435L19.312 13.1357L19.2534 13.0557V11.8193L19.311 11.7383L19.6362 11.2773L19.2534 11.3887V9.52344L21.2134 8.99219L21.2944 8.96973L21.4526 9.0127ZM21.1079 43.9814L21.4604 43.5283L21.4878 43.4941L21.5815 43.373L21.4878 43.252L21.4604 43.2168L21.1079 42.7637V43.9814ZM21.1411 35.5645L21.1333 35.5762L20.9292 35.8828H21.5024V35.0234L21.1411 35.5645ZM21.1079 13.0439L21.4604 12.5908L21.4878 12.5557L21.5815 12.4346L21.4878 12.3135L21.4604 12.2793L21.1079 11.8252V13.0439Z" fill="white" stroke="white" stroke-width="0.393987"/>
<path d="M12.1699 11.5146V11.5156L12.9062 12.5498L13.4346 13.2959L13.4551 13.4473H13.5469L14.2822 14.4834L14.4102 14.666L14.4111 14.667L14.8682 15.3105L14.8691 15.3115L15.085 15.6074V15.6084L15.6592 16.4189L16.291 17.3027V17.3018L16.6191 17.7656V24.8213L16.2861 24.3545L15.9805 23.9238L14.7686 22.2236V22.0312H14.6328L14.6055 21.9922L14.6035 21.9893L13.2236 20.0547L13.0928 19.8691H13.0918L12.4912 19.0244L12.1338 18.5215V26.5156H11.8262L12.0557 26.8291L12.1338 26.9355V28.8682L11.9053 29.1543H12.1338V37.7344H8.05469V24.666H8.34082L8.05469 24.3789V12.5469L9.94336 12.0361L10.1357 11.9873L10.1377 11.9863L10.9795 11.7578L12.1221 11.4482L12.1699 11.5146Z" fill="white" stroke="white" stroke-width="0.393987"/>
<path d="M3.85547 8.41895V41.1025C5.93185 43.0245 8.31855 44.7792 10.9639 46.3242C15.0078 48.6857 19.5401 50.4951 24.4414 51.7002C27.8109 50.5894 30.9854 49.1716 33.8828 47.4795C36.5207 45.9382 38.9074 44.1834 40.9912 42.2539V8.41895L22.4248 3.93945L3.85547 8.41895ZM44.252 43.6465L44.1309 43.7627L43.751 44.127C41.3624 46.4215 38.5964 48.4941 35.5283 50.2842C32.2963 52.1718 28.7577 53.7334 25.0068 54.9355L24.6816 55.041L24.5781 55.0742L24.4717 55.0498L24.1387 54.9717H24.1367C18.7599 53.6958 13.7765 51.7317 9.3291 49.1328C6.24971 47.3351 3.48347 45.2625 1.10645 42.9756V42.9746L0.727539 42.6113L0.606445 42.4951V5.85742L0.907227 5.78418L22.333 0.617188L22.4248 0.594727L22.5176 0.617188L43.9502 5.78418L44.252 5.85742V43.6465Z" fill="white" stroke="white" stroke-width="0.787973"/>
<path d="M55.7136 39.6836V14.2899H58.7435L64.1253 29.5261L63.8511 22.6006V14.2899H67.3283V39.6836H64.587L59.061 23.9135L59.2774 30.5794V39.6836H55.7136ZM78.6805 39.9722C77.0164 39.9722 75.7179 39.4768 74.7848 38.4861C73.8614 37.4857 73.3997 36.014 73.3997 34.071V29.5406H77.1366V33.8834C77.1366 34.3836 77.1655 34.8453 77.2232 35.2686C77.2905 35.6918 77.4252 36.0284 77.6272 36.2785C77.8292 36.5286 78.1418 36.6537 78.565 36.6537C78.9883 36.6537 79.3009 36.5334 79.5029 36.293C79.7049 36.0429 79.8395 35.6966 79.9069 35.2541C79.9742 34.802 80.0078 34.2682 80.0078 33.6526V14.2899H83.8746V33.465C83.8746 35.5523 83.4129 37.1587 82.4895 38.2841C81.5757 39.4095 80.306 39.9722 78.6805 39.9722ZM92.5719 39.6836L89.4699 14.2899H92.9327L94.7939 32.3829L97.1601 14.2899H100.277L102.657 32.3829L104.302 14.2899H107.779L104.865 39.6836H101.012L98.7617 22.8026L96.4243 39.6836H92.5719ZM126.184 39.9722C125.126 39.9722 124.241 39.8086 123.529 39.4816C122.827 39.1449 122.269 38.6592 121.855 38.0243C121.451 37.3799 121.163 36.6008 120.99 35.687C120.817 34.7636 120.73 33.7151 120.73 32.5416V30.2764H124.395V32.8302C124.395 34.1961 124.51 35.1772 124.741 35.7735C124.972 36.3699 125.429 36.6681 126.112 36.6681C126.573 36.6681 126.92 36.5623 127.151 36.3507C127.391 36.1294 127.55 35.7832 127.627 35.3118C127.713 34.8309 127.757 34.2057 127.757 33.4362C127.757 32.4839 127.555 31.6134 127.151 30.8247C126.756 30.0359 126.155 29.2183 125.347 28.3719L123.471 26.4385C122.952 25.8998 122.481 25.3275 122.057 24.7215C121.644 24.1155 121.312 23.4422 121.062 22.7016C120.821 21.9513 120.701 21.1145 120.701 20.1911C120.701 18.854 120.865 17.7238 121.192 16.8004C121.519 15.877 122.072 15.1797 122.851 14.7083C123.63 14.2274 124.698 13.9869 126.054 13.9869C127.074 13.9869 127.911 14.1456 128.565 14.4631C129.228 14.7709 129.743 15.2278 130.108 15.8337C130.484 16.4301 130.748 17.1611 130.902 18.0268C131.056 18.8829 131.133 19.864 131.133 20.9702V22.5429H127.569V20.7249C127.569 19.9554 127.526 19.3158 127.439 18.806C127.362 18.2962 127.213 17.9162 126.992 17.6661C126.771 17.4064 126.448 17.2766 126.025 17.2766C125.621 17.2766 125.294 17.3679 125.044 17.5507C124.794 17.7238 124.611 17.998 124.496 18.3731C124.39 18.7386 124.337 19.2148 124.337 19.8015C124.337 20.3305 124.404 20.7874 124.539 21.1722C124.674 21.5569 124.881 21.9273 125.16 22.2832C125.438 22.6391 125.785 23.0382 126.198 23.4807L128.29 25.7459C129.291 26.8232 130.07 27.9438 130.628 29.1077C131.186 30.2716 131.465 31.5701 131.465 33.0033C131.465 34.5231 131.301 35.8024 130.974 36.8412C130.647 37.8704 130.099 38.6496 129.329 39.1786C128.56 39.7076 127.511 39.9722 126.184 39.9722ZM137.146 39.6836V14.2899H142.976C143.985 14.2899 144.822 14.4438 145.486 14.7516C146.159 15.0594 146.688 15.5163 147.073 16.1223C147.458 16.7283 147.732 17.4786 147.896 18.3731C148.059 19.258 148.141 20.2824 148.141 21.4463V21.9802C148.141 23.6154 147.997 25.0101 147.708 26.1643C147.429 27.309 146.924 28.1795 146.193 28.7759C145.462 29.3722 144.433 29.6704 143.105 29.6704H141.013V39.6836H137.146ZM141.013 26.4818H142.341C142.908 26.4818 143.331 26.3375 143.61 26.0489C143.889 25.7604 144.072 25.2842 144.159 24.6205C144.255 23.9472 144.303 23.0527 144.303 21.9369V21.4463C144.293 20.0708 144.173 19.032 143.942 18.3298C143.711 17.618 143.187 17.2621 142.37 17.2621H141.013V26.4818ZM159.06 39.9722C157.742 39.9722 156.665 39.6932 155.828 39.1353C155.001 38.5774 154.39 37.7502 153.996 36.6537C153.601 35.5571 153.404 34.2009 153.404 32.5849V20.9702C153.404 19.5081 153.597 18.2577 153.981 17.2189C154.366 16.18 154.977 15.3817 155.814 14.8238C156.651 14.2659 157.747 13.9869 159.103 13.9869C160.123 13.9869 160.984 14.1456 161.686 14.4631C162.388 14.7805 162.956 15.2422 163.389 15.8482C163.821 16.4445 164.134 17.1756 164.326 18.0413C164.528 18.8973 164.629 19.8736 164.629 20.9702V32.5849C164.629 34.2009 164.437 35.5571 164.052 36.6537C163.677 37.7502 163.081 38.5774 162.263 39.1353C161.446 39.6932 160.378 39.9722 159.06 39.9722ZM159.06 36.6248C159.541 36.6248 159.902 36.4805 160.142 36.192C160.383 35.9034 160.541 35.4657 160.618 34.879C160.705 34.2826 160.748 33.5324 160.748 32.6282V20.7971C160.748 19.6909 160.642 18.8396 160.431 18.2433C160.229 17.6373 159.786 17.3343 159.103 17.3343C158.401 17.3343 157.925 17.6277 157.675 18.2144C157.425 18.7915 157.3 19.6476 157.3 20.7826V32.6282C157.3 33.5516 157.338 34.3115 157.415 34.9079C157.502 35.4946 157.67 35.9274 157.92 36.2064C158.18 36.4853 158.56 36.6248 159.06 36.6248ZM171.105 39.6836V14.2899H177.496C178.824 14.2899 179.815 14.5496 180.469 15.069C181.123 15.5885 181.551 16.3483 181.753 17.3487C181.964 18.3491 182.07 19.5707 182.07 21.0135C182.07 22.5044 181.916 23.6779 181.609 24.534C181.31 25.3804 180.695 25.9479 179.762 26.2365C180.204 26.3134 180.574 26.4962 180.873 26.7848C181.171 27.0637 181.411 27.4773 181.594 28.0256C181.777 28.5642 181.907 29.2616 181.984 30.1177C182.07 30.9641 182.113 32.003 182.113 33.2342C182.113 33.3304 182.113 33.5997 182.113 34.0422C182.113 34.4846 182.113 35.0088 182.113 35.6148C182.123 36.2112 182.133 36.8076 182.142 37.4039C182.152 38.0003 182.166 38.5101 182.186 38.9333C182.205 39.3566 182.229 39.6066 182.258 39.6836H178.391C178.362 39.6355 178.338 39.3902 178.319 38.9478C178.309 38.4957 178.295 37.9234 178.276 37.2308C178.266 36.5382 178.256 35.7928 178.247 34.9944C178.247 34.1961 178.247 33.4121 178.247 32.6426C178.247 31.8635 178.247 31.1758 178.247 30.5794C178.247 29.8195 178.189 29.2472 178.074 28.8624C177.968 28.4681 177.766 28.1939 177.468 28.04C177.179 27.8861 176.761 27.7947 176.212 27.7659L174.972 27.6937V39.6836H171.105ZM174.986 24.6927H176.53C177.001 24.6927 177.357 24.5869 177.597 24.3752C177.848 24.1636 178.016 23.7741 178.102 23.2066C178.199 22.6391 178.247 21.8215 178.247 20.7538V20.5951C178.247 19.7005 178.203 19.0128 178.117 18.5318C178.03 18.0509 177.848 17.719 177.569 17.5363C177.299 17.3535 176.876 17.2621 176.299 17.2621H174.986V24.6927ZM189.7 39.6836V17.6373H186.728V14.2899H196.409V17.6373H193.552V39.6836H189.7ZM200.547 39.6836V36.2497L205.813 17.6228H201.023V14.2899H209.868V17.4208L204.601 36.3507H209.752V39.6836H200.547Z" fill="white"/>
</svg>
